<?xml version="1.0" encoding="UTF-8" standalone="no"?><svg xmlns="http://www.w3.org/2000/svg" xmlns:xlink="http://www.w3.org/1999/xlink" contentStyleType="text/css" height="1126px" preserveAspectRatio="none" style="width:2275px;height:1126px;background:#FFFFFF;" version="1.1" viewBox="0 0 2275 1126" width="2275px" zoomAndPan="magnify"><defs/><g><!--MD5=[4ce2a6c9f8ad993e4729ab18fd0ef76f]
class WriterStrategy--><g id="elem_WriterStrategy"><rect codeLine="2" fill="#F1F1F1" height="67.9404" id="WriterStrategy" rx="2.5" ry="2.5" style="stroke:#181818;stroke-width:0.5;" width="312" x="69" y="119.5"/><ellipse cx="169.25" cy="135.5" fill="#B4A7E5" rx="11" ry="11" style="stroke:#181818;stroke-width:1.0;"/><path d="M171.9375,141.5156 L166.5,141.5156 L166.5,140.5156 Q167.7969,140.4375 168.0938,140.1719 Q168.375,139.9063 168.375,139.0625 L168.375,131.0938 Q168.375,130.2188 168.0625,129.9375 Q167.7969,129.7031 166.5,129.625 L166.5,128.625 L171.9375,128.625 L171.9375,129.625 Q170.7031,129.6875 170.4219,129.8906 Q170.0469,130.1875 170.0469,131.0938 L170.0469,139.0625 Q170.0469,139.9375 170.4219,140.2188 Q170.7031,140.4531 171.9375,140.5156 L171.9375,141.5156 Z " fill="#000000"/><text fill="#000000" font-family="sans-serif" font-size="14" font-style="italic" lengthAdjust="spacing" textLength="92" x="189.75" y="142.394">WriterStrategy</text><rect fill="#FFFFFF" height="19.0918" style="stroke:#181818;stroke-width:1.0;stroke-dasharray:2.0,2.0;" width="9" x="375" y="116.5"/><text fill="#000000" font-family="sans-serif" font-size="12" font-style="italic" lengthAdjust="spacing" textLength="7" x="376" y="131.9551">T</text><line style="stroke:#181818;stroke-width:0.5;" x1="70" x2="380" y1="151.5" y2="151.5"/><line style="stroke:#181818;stroke-width:0.5;" x1="70" x2="380" y1="159.5" y2="159.5"/><ellipse cx="80" cy="174.9702" fill="#84BE84" rx="3" ry="3" style="stroke:#038048;stroke-width:1.0;"/><text fill="#000000" font-family="sans-serif" font-size="14" lengthAdjust="spacing" textLength="286" x="89" y="180.3643">writeData(filePath: String, data: List&lt;T&gt;): void</text></g><!--MD5=[ba4f8844f9e1cb369bbf0d8724980b9b]
class CsvWriterStrategy--><g id="elem_CsvWriterStrategy"><rect codeLine="6" fill="#F1F1F1" height="107.8213" id="CsvWriterStrategy" rx="2.5" ry="2.5" style="stroke:#181818;stroke-width:0.5;" width="312" x="69" y="367"/><ellipse cx="157.75" cy="383" fill="#ADD1B2" rx="11" ry="11" style="stroke:#181818;stroke-width:1.0;"/><path d="M162.125,386.5938 Q161.625,387.4688 160.7188,388.1563 Q159.2188,389.2344 157.375,389.2344 Q155.0469,389.2344 153.4688,387.6719 Q151.6719,385.8594 151.6719,382.5313 Q151.6719,379.4531 153.4531,377.5625 Q155.1094,375.8281 157.4688,375.8281 Q158.3906,375.8281 159.4219,376.1406 Q160.3438,376.5469 160.3438,376.4219 Q160.5156,376.4219 160.6563,375.875 L161.6875,375.7969 L161.8438,380.4844 L160.875,380.5781 Q160.0625,377.0469 157.6094,377.0469 Q156.8906,377.0469 156.1406,377.3125 Q155.3125,377.625 154.8438,378.1094 Q153.5625,379.5469 153.5469,382.5625 Q153.5313,385.2031 154.9688,386.6719 Q156.1563,387.8906 157.8438,387.8906 Q159.7188,387.8906 161.5469,385.75 L162.125,386.5938 Z " fill="#000000"/><text fill="#000000" font-family="sans-serif" font-size="14" lengthAdjust="spacing" textLength="115" x="178.25" y="389.894">CsvWriterStrategy</text><rect fill="#FFFFFF" height="19.0918" style="stroke:#181818;stroke-width:1.0;stroke-dasharray:2.0,2.0;" width="9" x="375" y="364"/><text fill="#000000" font-family="sans-serif" font-size="12" font-style="italic" lengthAdjust="spacing" textLength="7" x="376" y="379.4551">T</text><line style="stroke:#181818;stroke-width:0.5;" x1="70" x2="380" y1="399" y2="399"/><rect fill="none" height="6" style="stroke:#C82930;stroke-width:1.0;" width="6" x="77" y="411.4702"/><text fill="#000000" font-family="sans-serif" font-size="14" lengthAdjust="spacing" textLength="251" x="89" y="419.8643">formatStrategy: ICsvFormatStrategy&lt;T&gt;</text><rect fill="none" height="6" style="stroke:#C82930;stroke-width:1.0;" width="6" x="77" y="431.4106"/><text fill="#000000" font-family="sans-serif" font-size="14" lengthAdjust="spacing" textLength="212" x="89" y="439.8047">writerStrategy: IFileWriterStrategy</text><line style="stroke:#181818;stroke-width:0.5;" x1="70" x2="380" y1="446.8809" y2="446.8809"/><ellipse cx="80" cy="462.3511" fill="#84BE84" rx="3" ry="3" style="stroke:#038048;stroke-width:1.0;"/><text fill="#000000" font-family="sans-serif" font-size="14" lengthAdjust="spacing" textLength="286" x="89" y="467.7451">writeData(filePath: String, data: List&lt;T&gt;): void</text></g><!--MD5=[09da6dc05bcef798eec7ecd93b52128b]
class ICsvFormatStrategy--><g id="elem_ICsvFormatStrategy"><rect codeLine="13" fill="#F1F1F1" height="127.7617" id="ICsvFormatStrategy" rx="2.5" ry="2.5" style="stroke:#181818;stroke-width:0.5;" width="784" x="416" y="357"/><ellipse cx="735.75" cy="373" fill="#B4A7E5" rx="11" ry="11" style="stroke:#181818;stroke-width:1.0;"/><path d="M738.4375,379.0156 L733,379.0156 L733,378.0156 Q734.2969,377.9375 734.5938,377.6719 Q734.875,377.4063 734.875,376.5625 L734.875,368.5938 Q734.875,367.7188 734.5625,367.4375 Q734.2969,367.2031 733,367.125 L733,366.125 L738.4375,366.125 L738.4375,367.125 Q737.2031,367.1875 736.9219,367.3906 Q736.5469,367.6875 736.5469,368.5938 L736.5469,376.5625 Q736.5469,377.4375 736.9219,377.7188 Q737.2031,377.9531 738.4375,378.0156 L738.4375,379.0156 Z " fill="#000000"/><text fill="#000000" font-family="sans-serif" font-size="14" font-style="italic" lengthAdjust="spacing" textLength="125" x="756.25" y="379.894">ICsvFormatStrategy</text><rect fill="#FFFFFF" height="19.0918" style="stroke:#181818;stroke-width:1.0;stroke-dasharray:2.0,2.0;" width="9" x="1194" y="354"/><text fill="#000000" font-family="sans-serif" font-size="12" font-style="italic" lengthAdjust="spacing" textLength="7" x="1195" y="369.4551">T</text><line style="stroke:#181818;stroke-width:0.5;" x1="417" x2="1199" y1="389" y2="389"/><line style="stroke:#181818;stroke-width:0.5;" x1="417" x2="1199" y1="397" y2="397"/><ellipse cx="427" cy="412.4702" fill="#84BE84" rx="3" ry="3" style="stroke:#038048;stroke-width:1.0;"/><text fill="#000000" font-family="sans-serif" font-size="14" lengthAdjust="spacing" textLength="307" x="436" y="417.8643">formatHeader(headerFields: List&lt;String&gt;): String</text><ellipse cx="427" cy="432.4106" fill="#84BE84" rx="3" ry="3" style="stroke:#038048;stroke-width:1.0;"/><text fill="#000000" font-family="sans-serif" font-size="14" lengthAdjust="spacing" textLength="347" x="436" y="437.8047">formatColumnFields(columnFields: List&lt;String&gt;): String</text><ellipse cx="427" cy="452.3511" fill="#84BE84" rx="3" ry="3" style="stroke:#038048;stroke-width:1.0;"/><text fill="#000000" font-family="sans-serif" font-size="14" lengthAdjust="spacing" textLength="170" x="436" y="457.7451">formatData(data: T): String</text><ellipse cx="427" cy="472.2915" fill="#84BE84" rx="3" ry="3" style="stroke:#038048;stroke-width:1.0;"/><text fill="#000000" font-family="sans-serif" font-size="14" lengthAdjust="spacing" textLength="758" x="436" y="477.6855">formatDataList(dataList: List&lt;T&gt;, includeHeader: boolean, headerFields: List&lt;String&gt;, columnFields: List&lt;String&gt;): String</text></g><!--MD5=[0c8316f7bff93cf73a349f21f2e7844e]
class AbstractCsvFormatStrategy--><g id="elem_AbstractCsvFormatStrategy"><rect codeLine="20" fill="#F1F1F1" height="386.9873" id="AbstractCsvFormatStrategy" rx="2.5" ry="2.5" style="stroke:#181818;stroke-width:0.5;" width="369" x="623.5" y="545"/><ellipse cx="717.25" cy="561" fill="#A9DCDF" rx="11" ry="11" style="stroke:#181818;stroke-width:1.0;"/><path d="M723.1719,565.7656 L718.5625,565.7656 L718.5625,564.7813 Q719.4688,564.7031 719.6875,564.6406 Q719.8906,564.5469 719.8906,564.25 Q719.8906,563.9063 719.6094,563.1875 L719.1094,561.7656 L714.9375,561.7656 L714.1875,563.6563 Q714.0781,563.9375 714.0781,564.25 Q714.0781,564.5469 714.2969,564.6406 Q714.4219,564.7188 715.1719,564.7813 L715.1719,565.7656 L711.4531,565.7656 L711.4531,564.8125 Q711.9375,564.7188 712.1406,564.6719 Q712.2344,564.6406 712.3438,564.5 Q712.7813,563.9531 713.4844,561.9688 L716.9375,552.6406 L717.4688,552.6406 L721.5,563.3281 Q721.8281,564.25 722.1875,564.5469 Q722.3594,564.6719 723.1719,564.7969 L723.1719,565.7656 Z M718.6406,560.4531 L717.0313,555.7344 L715.3281,560.4531 L718.6406,560.4531 Z " fill="#000000"/><text fill="#000000" font-family="sans-serif" font-size="14" font-style="italic" lengthAdjust="spacing" textLength="173" x="737.75" y="567.894">AbstractCsvFormatStrategy</text><line style="stroke:#181818;stroke-width:0.5;" x1="624.5" x2="991.5" y1="577" y2="577"/><rect fill="none" height="6" style="stroke:#C82930;stroke-width:1.0;" width="6" x="631.5" y="589.4702"/><text fill="#000000" font-family="sans-serif" font-size="14" lengthAdjust="spacing" textLength="131" x="643.5" y="597.8643">dataClass: Class&lt;T&gt;</text><rect fill="none" height="6" style="stroke:#C82930;stroke-width:1.0;" width="6" x="631.5" y="609.4106"/><text fill="#000000" font-family="sans-serif" font-size="14" lengthAdjust="spacing" textLength="160" x="643.5" y="617.8047">isIncludeHeader: boolean</text><rect fill="none" height="6" style="stroke:#C82930;stroke-width:1.0;" width="6" x="631.5" y="629.3511"/><text fill="#000000" font-family="sans-serif" font-size="14" lengthAdjust="spacing" textLength="166" x="643.5" y="637.7451">headerFields: List&lt;String&gt;</text><rect fill="none" height="6" style="stroke:#C82930;stroke-width:1.0;" width="6" x="631.5" y="649.2915"/><text fill="#000000" font-family="sans-serif" font-size="14" lengthAdjust="spacing" textLength="166" x="643.5" y="657.6855">columnFields: List&lt;String&gt;</text><line style="stroke:#181818;stroke-width:0.5;" x1="624.5" x2="991.5" y1="664.7617" y2="664.7617"/><ellipse cx="634.5" cy="680.2319" fill="#84BE84" rx="3" ry="3" style="stroke:#038048;stroke-width:1.0;"/><text fill="#000000" font-family="sans-serif" font-size="14" lengthAdjust="spacing" textLength="221" x="643.5" y="685.626">setDataClass(Class&lt;T&gt; dataClass)</text><ellipse cx="634.5" cy="700.1724" fill="#84BE84" rx="3" ry="3" style="stroke:#038048;stroke-width:1.0;"/><text fill="#000000" font-family="sans-serif" font-size="14" lengthAdjust="spacing" textLength="276" x="643.5" y="705.5664">setIncludeHeader(boolean isIncludeHeader)</text><ellipse cx="634.5" cy="720.1128" fill="#84BE84" rx="3" ry="3" style="stroke:#038048;stroke-width:1.0;"/><text fill="#000000" font-family="sans-serif" font-size="14" lengthAdjust="spacing" textLength="275" x="643.5" y="725.5068">setHeaderFields(List&lt;String&gt; headerFields)</text><ellipse cx="634.5" cy="740.0532" fill="#84BE84" rx="3" ry="3" style="stroke:#038048;stroke-width:1.0;"/><text fill="#000000" font-family="sans-serif" font-size="14" lengthAdjust="spacing" textLength="277" x="643.5" y="745.4473">setColumnFields(List&lt;String&gt; columnFields)</text><ellipse cx="634.5" cy="759.9937" fill="#84BE84" rx="3" ry="3" style="stroke:#038048;stroke-width:1.0;"/><text fill="#000000" font-family="sans-serif" font-size="14" lengthAdjust="spacing" textLength="163" x="643.5" y="765.3877">getDataClass(): Class&lt;T&gt;</text><ellipse cx="634.5" cy="779.9341" fill="#84BE84" rx="3" ry="3" style="stroke:#038048;stroke-width:1.0;"/><text fill="#000000" font-family="sans-serif" font-size="14" lengthAdjust="spacing" textLength="170" x="643.5" y="785.3281">isIncludeHeader(): boolean</text><ellipse cx="634.5" cy="799.8745" fill="#84BE84" rx="3" ry="3" style="stroke:#038048;stroke-width:1.0;"/><text fill="#000000" font-family="sans-serif" font-size="14" lengthAdjust="spacing" textLength="197" x="643.5" y="805.2686">getHeaderFields(): List&lt;String&gt;</text><ellipse cx="634.5" cy="819.8149" fill="#84BE84" rx="3" ry="3" style="stroke:#038048;stroke-width:1.0;"/><text fill="#000000" font-family="sans-serif" font-size="14" lengthAdjust="spacing" textLength="199" x="643.5" y="825.209">getColumnFields(): List&lt;String&gt;</text><ellipse cx="634.5" cy="839.7554" fill="#84BE84" rx="3" ry="3" style="stroke:#038048;stroke-width:1.0;"/><text fill="#000000" font-family="sans-serif" font-size="14" lengthAdjust="spacing" textLength="303" x="643.5" y="845.1494">formatHeader(List&lt;String&gt; headerFields): String</text><ellipse cx="634.5" cy="859.6958" fill="#84BE84" rx="3" ry="3" style="stroke:#038048;stroke-width:1.0;"/><text fill="#000000" font-family="sans-serif" font-size="14" lengthAdjust="spacing" textLength="343" x="643.5" y="865.0898">formatColumnFields(List&lt;String&gt; columnFields): String</text><ellipse cx="634.5" cy="879.6362" fill="#84BE84" rx="3" ry="3" style="stroke:#038048;stroke-width:1.0;"/><text fill="#000000" font-family="sans-serif" font-size="14" lengthAdjust="spacing" textLength="248" x="643.5" y="885.0303">formatDataList(List&lt;T&gt; dataList): String</text><ellipse cx="634.5" cy="899.5767" fill="#84BE84" rx="3" ry="3" style="stroke:#038048;stroke-width:1.0;"/><text fill="#000000" font-family="sans-serif" font-size="14" lengthAdjust="spacing" textLength="166" x="643.5" y="904.9707">formatData(T data): String</text><ellipse cx="634.5" cy="919.5171" fill="#84BE84" rx="3" ry="3" style="stroke:#038048;stroke-width:1.0;"/><text fill="#000000" font-family="sans-serif" font-size="14" lengthAdjust="spacing" textLength="285" x="643.5" y="924.9111">getObjectFields(Class&lt;?&gt; clazz): List&lt;String&gt;</text></g><!--MD5=[de948f882539b858a9e90df56f05613f]
class DefaultCsvFormatConvert--><g id="elem_DefaultCsvFormatConvert"><rect codeLine="40" fill="#F1F1F1" height="127.7617" id="DefaultCsvFormatConvert" rx="2.5" ry="2.5" style="stroke:#181818;stroke-width:0.5;" width="784" x="7" y="992"/><ellipse cx="307.25" cy="1008" fill="#ADD1B2" rx="11" ry="11" style="stroke:#181818;stroke-width:1.0;"/><path d="M311.625,1011.5938 Q311.125,1012.4688 310.2188,1013.1563 Q308.7188,1014.2344 306.875,1014.2344 Q304.5469,1014.2344 302.9688,1012.6719 Q301.1719,1010.8594 301.1719,1007.5313 Q301.1719,1004.4531 302.9531,1002.5625 Q304.6094,1000.8281 306.9688,1000.8281 Q307.8906,1000.8281 308.9219,1001.1406 Q309.8438,1001.5469 309.8438,1001.4219 Q310.0156,1001.4219 310.1563,1000.875 L311.1875,1000.7969 L311.3438,1005.4844 L310.375,1005.5781 Q309.5625,1002.0469 307.1094,1002.0469 Q306.3906,1002.0469 305.6406,1002.3125 Q304.8125,1002.625 304.3438,1003.1094 Q303.0625,1004.5469 303.0469,1007.5625 Q303.0313,1010.2031 304.4688,1011.6719 Q305.6563,1012.8906 307.3438,1012.8906 Q309.2188,1012.8906 311.0469,1010.75 L311.625,1011.5938 Z " fill="#000000"/><text fill="#000000" font-family="sans-serif" font-size="14" lengthAdjust="spacing" textLength="164" x="327.75" y="1014.894">DefaultCsvFormatConvert</text><rect fill="#FFFFFF" height="19.0918" style="stroke:#181818;stroke-width:1.0;stroke-dasharray:2.0,2.0;" width="9" x="785" y="989"/><text fill="#000000" font-family="sans-serif" font-size="12" font-style="italic" lengthAdjust="spacing" textLength="7" x="786" y="1004.4551">T</text><line style="stroke:#181818;stroke-width:0.5;" x1="8" x2="790" y1="1024" y2="1024"/><line style="stroke:#181818;stroke-width:0.5;" x1="8" x2="790" y1="1032" y2="1032"/><ellipse cx="18" cy="1047.4702" fill="#84BE84" rx="3" ry="3" style="stroke:#038048;stroke-width:1.0;"/><text fill="#000000" font-family="sans-serif" font-size="14" lengthAdjust="spacing" textLength="307" x="27" y="1052.8643">formatHeader(headerFields: List&lt;String&gt;): String</text><ellipse cx="18" cy="1067.4106" fill="#84BE84" rx="3" ry="3" style="stroke:#038048;stroke-width:1.0;"/><text fill="#000000" font-family="sans-serif" font-size="14" lengthAdjust="spacing" textLength="347" x="27" y="1072.8047">formatColumnFields(columnFields: List&lt;String&gt;): String</text><ellipse cx="18" cy="1087.3511" fill="#84BE84" rx="3" ry="3" style="stroke:#038048;stroke-width:1.0;"/><text fill="#000000" font-family="sans-serif" font-size="14" lengthAdjust="spacing" textLength="170" x="27" y="1092.7451">formatData(data: T): String</text><ellipse cx="18" cy="1107.2915" fill="#84BE84" rx="3" ry="3" style="stroke:#038048;stroke-width:1.0;"/><text fill="#000000" font-family="sans-serif" font-size="14" lengthAdjust="spacing" textLength="758" x="27" y="1112.6855">formatDataList(dataList: List&lt;T&gt;, includeHeader: boolean, headerFields: List&lt;String&gt;, columnFields: List&lt;String&gt;): String</text></g><!--MD5=[c330c026d4945ca8273bb80250bb6df7]
class UserCsvFormatConvert--><g id="elem_UserCsvFormatConvert"><rect codeLine="47" fill="#F1F1F1" height="127.7617" id="UserCsvFormatConvert" rx="2.5" ry="2.5" style="stroke:#181818;stroke-width:0.5;" width="784" x="826" y="992"/><ellipse cx="1134.25" cy="1008" fill="#ADD1B2" rx="11" ry="11" style="stroke:#181818;stroke-width:1.0;"/><path d="M1138.625,1011.5938 Q1138.125,1012.4688 1137.2188,1013.1563 Q1135.7188,1014.2344 1133.875,1014.2344 Q1131.5469,1014.2344 1129.9688,1012.6719 Q1128.1719,1010.8594 1128.1719,1007.5313 Q1128.1719,1004.4531 1129.9531,1002.5625 Q1131.6094,1000.8281 1133.9688,1000.8281 Q1134.8906,1000.8281 1135.9219,1001.1406 Q1136.8438,1001.5469 1136.8438,1001.4219 Q1137.0156,1001.4219 1137.1563,1000.875 L1138.1875,1000.7969 L1138.3438,1005.4844 L1137.375,1005.5781 Q1136.5625,1002.0469 1134.1094,1002.0469 Q1133.3906,1002.0469 1132.6406,1002.3125 Q1131.8125,1002.625 1131.3438,1003.1094 Q1130.0625,1004.5469 1130.0469,1007.5625 Q1130.0313,1010.2031 1131.4688,1011.6719 Q1132.6563,1012.8906 1134.3438,1012.8906 Q1136.2188,1012.8906 1138.0469,1010.75 L1138.625,1011.5938 Z " fill="#000000"/><text fill="#000000" font-family="sans-serif" font-size="14" lengthAdjust="spacing" textLength="148" x="1154.75" y="1014.894">UserCsvFormatConvert</text><rect fill="#FFFFFF" height="19.0918" style="stroke:#181818;stroke-width:1.0;stroke-dasharray:2.0,2.0;" width="9" x="1604" y="989"/><text fill="#000000" font-family="sans-serif" font-size="12" font-style="italic" lengthAdjust="spacing" textLength="7" x="1605" y="1004.4551">T</text><line style="stroke:#181818;stroke-width:0.5;" x1="827" x2="1609" y1="1024" y2="1024"/><line style="stroke:#181818;stroke-width:0.5;" x1="827" x2="1609" y1="1032" y2="1032"/><ellipse cx="837" cy="1047.4702" fill="#84BE84" rx="3" ry="3" style="stroke:#038048;stroke-width:1.0;"/><text fill="#000000" font-family="sans-serif" font-size="14" lengthAdjust="spacing" textLength="307" x="846" y="1052.8643">formatHeader(headerFields: List&lt;String&gt;): String</text><ellipse cx="837" cy="1067.4106" fill="#84BE84" rx="3" ry="3" style="stroke:#038048;stroke-width:1.0;"/><text fill="#000000" font-family="sans-serif" font-size="14" lengthAdjust="spacing" textLength="347" x="846" y="1072.8047">formatColumnFields(columnFields: List&lt;String&gt;): String</text><ellipse cx="837" cy="1087.3511" fill="#84BE84" rx="3" ry="3" style="stroke:#038048;stroke-width:1.0;"/><text fill="#000000" font-family="sans-serif" font-size="14" lengthAdjust="spacing" textLength="170" x="846" y="1092.7451">formatData(data: T): String</text><ellipse cx="837" cy="1107.2915" fill="#84BE84" rx="3" ry="3" style="stroke:#038048;stroke-width:1.0;"/><text fill="#000000" font-family="sans-serif" font-size="14" lengthAdjust="spacing" textLength="758" x="846" y="1112.6855">formatDataList(dataList: List&lt;T&gt;, includeHeader: boolean, headerFields: List&lt;String&gt;, columnFields: List&lt;String&gt;): String</text></g><!--MD5=[c1cec49b63818e6fc84da05131e225b8]
class CsvWriterStrategyBuilder--><g id="elem_CsvWriterStrategyBuilder"><rect codeLine="54" fill="#F1F1F1" height="287.2852" id="CsvWriterStrategyBuilder" rx="2.5" ry="2.5" style="stroke:#181818;stroke-width:0.5;" width="601" x="1273.5" y="10"/><ellipse cx="1484.75" cy="26" fill="#ADD1B2" rx="11" ry="11" style="stroke:#181818;stroke-width:1.0;"/><path d="M1489.125,29.5938 Q1488.625,30.4688 1487.7188,31.1563 Q1486.2188,32.2344 1484.375,32.2344 Q1482.0469,32.2344 1480.4688,30.6719 Q1478.6719,28.8594 1478.6719,25.5313 Q1478.6719,22.4531 1480.4531,20.5625 Q1482.1094,18.8281 1484.4688,18.8281 Q1485.3906,18.8281 1486.4219,19.1406 Q1487.3438,19.5469 1487.3438,19.4219 Q1487.5156,19.4219 1487.6563,18.875 L1488.6875,18.7969 L1488.8438,23.4844 L1487.875,23.5781 Q1487.0625,20.0469 1484.6094,20.0469 Q1483.8906,20.0469 1483.1406,20.3125 Q1482.3125,20.625 1481.8438,21.1094 Q1480.5625,22.5469 1480.5469,25.5625 Q1480.5313,28.2031 1481.9688,29.6719 Q1483.1563,30.8906 1484.8438,30.8906 Q1486.7188,30.8906 1488.5469,28.75 L1489.125,29.5938 Z " fill="#000000"/><text fill="#000000" font-family="sans-serif" font-size="14" lengthAdjust="spacing" textLength="159" x="1505.25" y="32.894">CsvWriterStrategyBuilder</text><rect fill="#FFFFFF" height="19.0918" style="stroke:#181818;stroke-width:1.0;stroke-dasharray:2.0,2.0;" width="9" x="1868.5" y="7"/><text fill="#000000" font-family="sans-serif" font-size="12" font-style="italic" lengthAdjust="spacing" textLength="7" x="1869.5" y="22.4551">T</text><line style="stroke:#181818;stroke-width:0.5;" x1="1274.5" x2="1873.5" y1="42" y2="42"/><rect fill="none" height="6" style="stroke:#C82930;stroke-width:1.0;" width="6" x="1281.5" y="54.4702"/><text fill="#000000" font-family="sans-serif" font-size="14" lengthAdjust="spacing" textLength="130" x="1293.5" y="62.8643">dataClass: Class&lt;?&gt;</text><rect fill="none" height="6" style="stroke:#C82930;stroke-width:1.0;" width="6" x="1281.5" y="74.4106"/><text fill="#000000" font-family="sans-serif" font-size="14" lengthAdjust="spacing" textLength="150" x="1293.5" y="82.8047">includeHeader: boolean</text><rect fill="none" height="6" style="stroke:#C82930;stroke-width:1.0;" width="6" x="1281.5" y="94.3511"/><text fill="#000000" font-family="sans-serif" font-size="14" lengthAdjust="spacing" textLength="166" x="1293.5" y="102.7451">headerFields: List&lt;String&gt;</text><rect fill="none" height="6" style="stroke:#C82930;stroke-width:1.0;" width="6" x="1281.5" y="114.2915"/><text fill="#000000" font-family="sans-serif" font-size="14" lengthAdjust="spacing" textLength="166" x="1293.5" y="122.6855">columnFields: List&lt;String&gt;</text><rect fill="none" height="6" style="stroke:#C82930;stroke-width:1.0;" width="6" x="1281.5" y="134.2319"/><text fill="#000000" font-family="sans-serif" font-size="14" lengthAdjust="spacing" textLength="251" x="1293.5" y="142.626">formatStrategy: ICsvFormatStrategy&lt;T&gt;</text><rect fill="none" height="6" style="stroke:#C82930;stroke-width:1.0;" width="6" x="1281.5" y="154.1724"/><text fill="#000000" font-family="sans-serif" font-size="14" lengthAdjust="spacing" textLength="212" x="1293.5" y="162.5664">writerStrategy: IFileWriterStrategy</text><line style="stroke:#181818;stroke-width:0.5;" x1="1274.5" x2="1873.5" y1="169.6426" y2="169.6426"/><ellipse cx="1284.5" cy="185.1128" fill="#84BE84" rx="3" ry="3" style="stroke:#038048;stroke-width:1.0;"/><text fill="#000000" font-family="sans-serif" font-size="14" lengthAdjust="spacing" textLength="467" x="1293.5" y="190.5068">withIncludeHeader(includeHeader: boolean): CsvWriterStrategyBuilder&lt;T&gt;</text><ellipse cx="1284.5" cy="205.0532" fill="#84BE84" rx="3" ry="3" style="stroke:#038048;stroke-width:1.0;"/><text fill="#000000" font-family="sans-serif" font-size="14" lengthAdjust="spacing" textLength="476" x="1293.5" y="210.4473">withHeaderFields(headerFields: List&lt;String&gt;): CsvWriterStrategyBuilder&lt;T&gt;</text><ellipse cx="1284.5" cy="224.9937" fill="#84BE84" rx="3" ry="3" style="stroke:#038048;stroke-width:1.0;"/><text fill="#000000" font-family="sans-serif" font-size="14" lengthAdjust="spacing" textLength="478" x="1293.5" y="230.3877">withColumnFields(columnFields: List&lt;String&gt;): CsvWriterStrategyBuilder&lt;T&gt;</text><ellipse cx="1284.5" cy="244.9341" fill="#84BE84" rx="3" ry="3" style="stroke:#038048;stroke-width:1.0;"/><text fill="#000000" font-family="sans-serif" font-size="14" lengthAdjust="spacing" textLength="575" x="1293.5" y="250.3281">withFormatStrategy(formatStrategy: ICsvFormatStrategy&lt;T&gt;): CsvWriterStrategyBuilder&lt;T&gt;</text><ellipse cx="1284.5" cy="264.8745" fill="#84BE84" rx="3" ry="3" style="stroke:#038048;stroke-width:1.0;"/><text fill="#000000" font-family="sans-serif" font-size="14" lengthAdjust="spacing" textLength="529" x="1293.5" y="270.2686">withWriterStrategy(writerStrategy: IFileWriterStrategy): CsvWriterStrategyBuilder&lt;T&gt;</text><ellipse cx="1284.5" cy="284.8149" fill="#84BE84" rx="3" ry="3" style="stroke:#038048;stroke-width:1.0;"/><text fill="#000000" font-family="sans-serif" font-size="14" lengthAdjust="spacing" textLength="188" x="1293.5" y="290.209">build(): CsvWriterStrategy&lt;T&gt;</text></g><!--MD5=[4f1a3b507a3923ff85a28f9ec335348a]
class IFileWriterStrategy--><g id="elem_IFileWriterStrategy"><rect codeLine="70" fill="#F1F1F1" height="67.9404" id="IFileWriterStrategy" rx="2.5" ry="2.5" style="stroke:#181818;stroke-width:0.5;" width="321" x="1235.5" y="387"/><ellipse cx="1332.25" cy="403" fill="#B4A7E5" rx="11" ry="11" style="stroke:#181818;stroke-width:1.0;"/><path d="M1334.9375,409.0156 L1329.5,409.0156 L1329.5,408.0156 Q1330.7969,407.9375 1331.0938,407.6719 Q1331.375,407.4063 1331.375,406.5625 L1331.375,398.5938 Q1331.375,397.7188 1331.0625,397.4375 Q1330.7969,397.2031 1329.5,397.125 L1329.5,396.125 L1334.9375,396.125 L1334.9375,397.125 Q1333.7031,397.1875 1333.4219,397.3906 Q1333.0469,397.6875 1333.0469,398.5938 L1333.0469,406.5625 Q1333.0469,407.4375 1333.4219,407.7188 Q1333.7031,407.9531 1334.9375,408.0156 L1334.9375,409.0156 Z " fill="#000000"/><text fill="#000000" font-family="sans-serif" font-size="14" font-style="italic" lengthAdjust="spacing" textLength="119" x="1352.75" y="409.894">IFileWriterStrategy</text><line style="stroke:#181818;stroke-width:0.5;" x1="1236.5" x2="1555.5" y1="419" y2="419"/><line style="stroke:#181818;stroke-width:0.5;" x1="1236.5" x2="1555.5" y1="427" y2="427"/><ellipse cx="1246.5" cy="442.4702" fill="#84BE84" rx="3" ry="3" style="stroke:#038048;stroke-width:1.0;"/><text fill="#000000" font-family="sans-serif" font-size="14" lengthAdjust="spacing" textLength="295" x="1255.5" y="447.8643">writeData(filePath: String, content: String): void</text></g><!--MD5=[2a68bc1b2db8b9c8def97703b2d7ecf2]
class DefaultFileWriterStrategy--><g id="elem_DefaultFileWriterStrategy"><rect codeLine="74" fill="#F1F1F1" height="67.9404" id="DefaultFileWriterStrategy" rx="2.5" ry="2.5" style="stroke:#181818;stroke-width:0.5;" width="321" x="1591.5" y="387"/><ellipse cx="1668.25" cy="403" fill="#ADD1B2" rx="11" ry="11" style="stroke:#181818;stroke-width:1.0;"/><path d="M1672.625,406.5938 Q1672.125,407.4688 1671.2188,408.1563 Q1669.7188,409.2344 1667.875,409.2344 Q1665.5469,409.2344 1663.9688,407.6719 Q1662.1719,405.8594 1662.1719,402.5313 Q1662.1719,399.4531 1663.9531,397.5625 Q1665.6094,395.8281 1667.9688,395.8281 Q1668.8906,395.8281 1669.9219,396.1406 Q1670.8438,396.5469 1670.8438,396.4219 Q1671.0156,396.4219 1671.1563,395.875 L1672.1875,395.7969 L1672.3438,400.4844 L1671.375,400.5781 Q1670.5625,397.0469 1668.1094,397.0469 Q1667.3906,397.0469 1666.6406,397.3125 Q1665.8125,397.625 1665.3438,398.1094 Q1664.0625,399.5469 1664.0469,402.5625 Q1664.0313,405.2031 1665.4688,406.6719 Q1666.6563,407.8906 1668.3438,407.8906 Q1670.2188,407.8906 1672.0469,405.75 L1672.625,406.5938 Z " fill="#000000"/><text fill="#000000" font-family="sans-serif" font-size="14" lengthAdjust="spacing" textLength="159" x="1688.75" y="409.894">DefaultFileWriterStrategy</text><line style="stroke:#181818;stroke-width:0.5;" x1="1592.5" x2="1911.5" y1="419" y2="419"/><line style="stroke:#181818;stroke-width:0.5;" x1="1592.5" x2="1911.5" y1="427" y2="427"/><ellipse cx="1602.5" cy="442.4702" fill="#84BE84" rx="3" ry="3" style="stroke:#038048;stroke-width:1.0;"/><text fill="#000000" font-family="sans-serif" font-size="14" lengthAdjust="spacing" textLength="295" x="1611.5" y="447.8643">writeData(filePath: String, content: String): void</text></g><!--MD5=[624e19064d8b9a7d43fcb1071767e477]
class CsvFileWriterStrategy--><g id="elem_CsvFileWriterStrategy"><rect codeLine="78" fill="#F1F1F1" height="67.9404" id="CsvFileWriterStrategy" rx="2.5" ry="2.5" style="stroke:#181818;stroke-width:0.5;" width="321" x="1947.5" y="387"/><ellipse cx="2034.75" cy="403" fill="#ADD1B2" rx="11" ry="11" style="stroke:#181818;stroke-width:1.0;"/><path d="M2039.125,406.5938 Q2038.625,407.4688 2037.7188,408.1563 Q2036.2188,409.2344 2034.375,409.2344 Q2032.0469,409.2344 2030.4688,407.6719 Q2028.6719,405.8594 2028.6719,402.5313 Q2028.6719,399.4531 2030.4531,397.5625 Q2032.1094,395.8281 2034.4688,395.8281 Q2035.3906,395.8281 2036.4219,396.1406 Q2037.3438,396.5469 2037.3438,396.4219 Q2037.5156,396.4219 2037.6563,395.875 L2038.6875,395.7969 L2038.8438,400.4844 L2037.875,400.5781 Q2037.0625,397.0469 2034.6094,397.0469 Q2033.8906,397.0469 2033.1406,397.3125 Q2032.3125,397.625 2031.8438,398.1094 Q2030.5625,399.5469 2030.5469,402.5625 Q2030.5313,405.2031 2031.9688,406.6719 Q2033.1563,407.8906 2034.8438,407.8906 Q2036.7188,407.8906 2038.5469,405.75 L2039.125,406.5938 Z " fill="#000000"/><text fill="#000000" font-family="sans-serif" font-size="14" lengthAdjust="spacing" textLength="138" x="2055.25" y="409.894">CsvFileWriterStrategy</text><line style="stroke:#181818;stroke-width:0.5;" x1="1948.5" x2="2267.5" y1="419" y2="419"/><line style="stroke:#181818;stroke-width:0.5;" x1="1948.5" x2="2267.5" y1="427" y2="427"/><ellipse cx="1958.5" cy="442.4702" fill="#84BE84" rx="3" ry="3" style="stroke:#038048;stroke-width:1.0;"/><text fill="#000000" font-family="sans-serif" font-size="14" lengthAdjust="spacing" textLength="295" x="1967.5" y="447.8643">writeData(filePath: String, content: String): void</text></g><!--MD5=[fdf0d75da4f8f54ef1e1dfe630deb5f4]
reverse link ICsvFormatStrategy to AbstractCsvFormatStrategy--><g id="link_ICsvFormatStrategy_AbstractCsvFormatStrategy"><path codeLine="82" d="M808,505.3 C808,517.81 808,531.13 808,544.82 " fill="none" id="ICsvFormatStrategy-backto-AbstractCsvFormatStrategy" style="stroke:#181818;stroke-width:1.0;stroke-dasharray:7.0,7.0;"/><polygon fill="none" points="801,505.09,808,485.09,815,505.09,801,505.09" style="stroke:#181818;stroke-width:1.0;"/></g><!--MD5=[5aede56a88b605f44a2658b9e6155daf]
reverse link AbstractCsvFormatStrategy to DefaultCsvFormatConvert--><g id="link_AbstractCsvFormatStrategy_DefaultCsvFormatConvert"><path codeLine="83" d="M607.4,894.24 C562.53,928.86 517.41,963.66 480.68,991.99 " fill="none" id="AbstractCsvFormatStrategy-backto-DefaultCsvFormatConvert" style="stroke:#181818;stroke-width:1.0;"/><polygon fill="none" points="603.13,888.69,623.24,882.02,611.68,899.78,603.13,888.69" style="stroke:#181818;stroke-width:1.0;"/></g><!--MD5=[94927b84bf5549e9365fb2e042626311]
reverse link AbstractCsvFormatStrategy to UserCsvFormatConvert--><g id="link_AbstractCsvFormatStrategy_UserCsvFormatConvert"><path codeLine="84" d="M1008.56,893.83 C1053.71,928.58 1099.15,963.55 1136.12,991.99 " fill="none" id="AbstractCsvFormatStrategy-backto-UserCsvFormatConvert" style="stroke:#181818;stroke-width:1.0;"/><polygon fill="none" points="1004.19,899.3,992.61,881.56,1012.73,888.21,1004.19,899.3" style="stroke:#181818;stroke-width:1.0;"/></g><!--MD5=[c400e41fb0e0ddc22e038766545908e6]
reverse link WriterStrategy to CsvWriterStrategy--><g id="link_WriterStrategy_CsvWriterStrategy"><path codeLine="85" d="M225,207.85 C225,254.06 225,320.55 225,366.73 " fill="none" id="WriterStrategy-backto-CsvWriterStrategy" style="stroke:#181818;stroke-width:1.0;"/><polygon fill="none" points="218,207.59,225,187.59,232,207.59,218,207.59" style="stroke:#181818;stroke-width:1.0;"/></g><!--MD5=[ecc9dcb995e19cd01288f56a8fa508c7]
reverse link CsvWriterStrategyBuilder to ICsvFormatStrategy--><g id="link_CsvWriterStrategyBuilder_ICsvFormatStrategy"><path codeLine="86" d="M1261.07,262.96 C1168.86,294.92 1071.05,328.83 989.99,356.92 " fill="none" id="CsvWriterStrategyBuilder-backto-ICsvFormatStrategy" style="stroke:#181818;stroke-width:1.0;"/><polygon fill="none" points="1273.46,258.67,1266.4811,256.8549,1262.1214,262.5989,1269.1004,264.414,1273.46,258.67" style="stroke:#181818;stroke-width:1.0;"/></g><!--MD5=[f891fcb70746c703e80b5cbb514c6953]
reverse link CsvWriterStrategyBuilder to IFileWriterStrategy--><g id="link_CsvWriterStrategyBuilder_IFileWriterStrategy"><path codeLine="87" d="M1470.86,308.35 C1450.95,338.04 1432.02,366.28 1418.17,386.93 " fill="none" id="CsvWriterStrategyBuilder-backto-IFileWriterStrategy" style="stroke:#181818;stroke-width:1.0;"/><polygon fill="none" points="1478.23,297.35,1471.5685,300.1113,1471.5553,307.3224,1478.2168,304.5611,1478.23,297.35" style="stroke:#181818;stroke-width:1.0;"/></g><!--MD5=[5fb2e84a30900c8223a38b06cb714afe]
reverse link CsvWriterStrategyBuilder to DefaultFileWriterStrategy--><g id="link_CsvWriterStrategyBuilder_DefaultFileWriterStrategy"><path codeLine="88" d="M1681.06,314.18 C1699.52,341.72 1716.9,367.64 1729.83,386.93 " fill="none" id="CsvWriterStrategyBuilder-backto-DefaultFileWriterStrategy" style="stroke:#181818;stroke-width:1.0;"/><polygon fill="none" points="1675.1,317.86,1669.77,297.35,1686.73,310.07,1675.1,317.86" style="stroke:#181818;stroke-width:1.0;"/></g><!--MD5=[fae5536c9785ade8853219efb7172eb3]
reverse link CsvWriterStrategyBuilder to CsvFileWriterStrategy--><g id="link_CsvWriterStrategyBuilder_CsvFileWriterStrategy"><path codeLine="89" d="M1879.16,306.22 C1940.49,336.72 1999.08,365.85 2041.62,387 " fill="none" id="CsvWriterStrategyBuilder-backto-CsvFileWriterStrategy" style="stroke:#181818;stroke-width:1.0;"/><polygon fill="none" points="1875.72,312.33,1860.93,297.16,1881.96,299.8,1875.72,312.33" style="stroke:#181818;stroke-width:1.0;"/></g><!--MD5=[df1d9bb4c4345d11ace1d9b1808e9f55]
@startuml

interface WriterStrategy<T> {
    + writeData(filePath: String, data: List<T>): void
}

class CsvWriterStrategy<T> {
    - formatStrategy: ICsvFormatStrategy<T>
    - writerStrategy: IFileWriterStrategy

    + writeData(filePath: String, data: List<T>): void
}

interface ICsvFormatStrategy<T> {
    + formatHeader(headerFields: List<String>): String
    + formatColumnFields(columnFields: List<String>): String
    + formatData(data: T): String
    + formatDataList(dataList: List<T>, includeHeader: boolean, headerFields: List<String>, columnFields: List<String>): String
}

abstract class AbstractCsvFormatStrategy {
  -dataClass: Class<T>
  -isIncludeHeader: boolean
  -headerFields: List<String>
  -columnFields: List<String>
  +setDataClass(Class<T> dataClass)
  +setIncludeHeader(boolean isIncludeHeader)
  +setHeaderFields(List<String> headerFields)
  +setColumnFields(List<String> columnFields)
  +getDataClass(): Class<T>
  +isIncludeHeader(): boolean
  +getHeaderFields(): List<String>
  +getColumnFields(): List<String>
  +formatHeader(List<String> headerFields): String
  +formatColumnFields(List<String> columnFields): String
  +formatDataList(List<T> dataList): String
  +formatData(T data): String
  +getObjectFields(Class<?> clazz): List<String>
}

class DefaultCsvFormatConvert<T> {
    + formatHeader(headerFields: List<String>): String
    + formatColumnFields(columnFields: List<String>): String
    + formatData(data: T): String
    + formatDataList(dataList: List<T>, includeHeader: boolean, headerFields: List<String>, columnFields: List<String>): String
}

class UserCsvFormatConvert<T> {
    + formatHeader(headerFields: List<String>): String
    + formatColumnFields(columnFields: List<String>): String
    + formatData(data: T): String
    + formatDataList(dataList: List<T>, includeHeader: boolean, headerFields: List<String>, columnFields: List<String>): String
}

class CsvWriterStrategyBuilder<T> {
    - dataClass: Class<?>
    - includeHeader: boolean
    - headerFields: List<String>
    - columnFields: List<String>
    - formatStrategy: ICsvFormatStrategy<T>
    - writerStrategy: IFileWriterStrategy

    + withIncludeHeader(includeHeader: boolean): CsvWriterStrategyBuilder<T>
    + withHeaderFields(headerFields: List<String>): CsvWriterStrategyBuilder<T>
    + withColumnFields(columnFields: List<String>): CsvWriterStrategyBuilder<T>
    + withFormatStrategy(formatStrategy: ICsvFormatStrategy<T>): CsvWriterStrategyBuilder<T>
    + withWriterStrategy(writerStrategy: IFileWriterStrategy): CsvWriterStrategyBuilder<T>
    + build(): CsvWriterStrategy<T>
}

interface IFileWriterStrategy {
    + writeData(filePath: String, content: String): void
}

class DefaultFileWriterStrategy {
    + writeData(filePath: String, content: String): void
}

class CsvFileWriterStrategy {
    + writeData(filePath: String, content: String): void
}

ICsvFormatStrategy <|.. AbstractCsvFormatStrategy
AbstractCsvFormatStrategy <|- - DefaultCsvFormatConvert
AbstractCsvFormatStrategy <|- - UserCsvFormatConvert
WriterStrategy <|- - CsvWriterStrategy
CsvWriterStrategyBuilder o- - ICsvFormatStrategy
CsvWriterStrategyBuilder o- - IFileWriterStrategy
CsvWriterStrategyBuilder <|- - DefaultFileWriterStrategy
CsvWriterStrategyBuilder <|- - CsvFileWriterStrategy

@enduml

PlantUML version 1.2022.7(Tue Aug 23 01:01:30 CST 2022)
(GPL source distribution)
Java Runtime: OpenJDK Runtime Environment
JVM: OpenJDK 64-Bit Server VM
Default Encoding: MS950
Language: zh
Country: TW
--></g></svg>